<svg xmlns="http://www.w3.org/2000/svg" viewBox="0 0 750 1624">
  <defs>
    <linearGradient id="wallpaper" x1="0%" y1="0%" x2="100%" y2="100%">
      <stop offset="0%" stop-color="#ff9a4c" />
      <stop offset="25%" stop-color="#ff5fa2" />
      <stop offset="55%" stop-color="#5c9fff" />
      <stop offset="100%" stop-color="#6affd8" />
    </linearGradient>
    <linearGradient id="streak" x1="0%" y1="0%" x2="100%" y2="0%">
      <stop offset="0%" stop-color="#ff7088" stop-opacity="0.7" />
      <stop offset="45%" stop-color="#fff" stop-opacity="0.0" />
      <stop offset="100%" stop-color="#ffb44d" stop-opacity="0.6" />
    </linearGradient>
    <linearGradient id="iconGradient" x1="0%" y1="0%" x2="100%" y2="100%">
      <stop offset="0%" stop-color="#ffffff" stop-opacity="0.95" />
      <stop offset="100%" stop-color="#f0f3ff" stop-opacity="0.95" />
    </linearGradient>
    <filter id="iconShadow" x="-15%" y="-15%" width="130%" height="130%">
      <feDropShadow dx="0" dy="6" stdDeviation="12" flood-color="rgba(0,0,0,0.25)" />
    </filter>
  </defs>
  <rect width="750" height="1624" rx="118" fill="url(#wallpaper)" />
  <path d="M-40 920 C120 780 260 720 420 780 C580 840 640 1000 820 1060 L820 1680 L-40 1680 Z" fill="url(#streak)" opacity="0.85" />
  <g font-family="'SF Pro Display', 'Segoe UI', sans-serif" font-size="32" font-weight="600" fill="#1a1d27">
    <g transform="translate(110 220)" filter="url(#iconShadow)">
      <rect width="132" height="132" rx="38" fill="url(#iconGradient)" />
      <text x="50%" y="92" dominant-baseline="middle" text-anchor="middle">ChatGPT</text>
    </g>
    <g transform="translate(290 220)" filter="url(#iconShadow)">
      <rect width="132" height="132" rx="38" fill="url(#iconGradient)" />
      <text x="50%" y="92" dominant-baseline="middle" text-anchor="middle">Sora</text>
    </g>
    <g transform="translate(470 220)" filter="url(#iconShadow)">
      <rect width="132" height="132" rx="38" fill="url(#iconGradient)" />
      <text x="50%" y="92" dominant-baseline="middle" text-anchor="middle">Gemini</text>
    </g>

    <g transform="translate(110 420)" filter="url(#iconShadow)">
      <rect width="132" height="132" rx="38" fill="url(#iconGradient)" />
      <text x="50%" y="92" dominant-baseline="middle" text-anchor="middle">Veo3</text>
    </g>
    <g transform="translate(290 420)" filter="url(#iconShadow)">
      <rect width="132" height="132" rx="38" fill="url(#iconGradient)" />
      <text x="50%" y="92" dominant-baseline="middle" text-anchor="middle">Turnitin</text>
    </g>
    <g transform="translate(470 420)" filter="url(#iconShadow)">
      <rect width="132" height="132" rx="38" fill="url(#iconGradient)" />
      <text x="50%" y="92" dominant-baseline="middle" text-anchor="middle">Quillbot</text>
    </g>

    <g transform="translate(110 620)" filter="url(#iconShadow)">
      <rect width="132" height="132" rx="38" fill="url(#iconGradient)" />
      <text x="50%" y="92" dominant-baseline="middle" text-anchor="middle">Gamma</text>
    </g>
    <g transform="translate(290 620)" filter="url(#iconShadow)">
      <rect width="132" height="132" rx="38" fill="url(#iconGradient)" />
      <text x="50%" y="92" dominant-baseline="middle" text-anchor="middle">CapCut</text>
    </g>
    <g transform="translate(470 620)" filter="url(#iconShadow)">
      <rect width="132" height="132" rx="38" fill="url(#iconGradient)" />
      <text x="50%" y="92" dominant-baseline="middle" text-anchor="middle">Canva</text>
    </g>

    <g transform="translate(200 840)" filter="url(#iconShadow)">
      <rect width="132" height="132" rx="38" fill="url(#iconGradient)" />
      <text x="50%" y="92" dominant-baseline="middle" text-anchor="middle">YT</text>
      <text x="50%" y="122" dominant-baseline="middle" text-anchor="middle">Music</text>
    </g>
    <g transform="translate(380 840)" filter="url(#iconShadow)">
      <rect width="132" height="132" rx="38" fill="url(#iconGradient)" />
      <text x="50%" y="92" dominant-baseline="middle" text-anchor="middle">YouTube</text>
    </g>
  </g>
</svg>
